<?xml version="1.0" encoding="UTF-8" standalone="no"?>
<!DOCTYPE svg PUBLIC "-//W3C//DTD SVG 1.1//EN" "http://www.w3.org/Graphics/SVG/1.1/DTD/svg11.dtd">
<svg width="100%" height="100%" viewBox="0 0 3508 4961" version="1.1" xmlns="http://www.w3.org/2000/svg" xmlns:xlink="http://www.w3.org/1999/xlink" xml:space="preserve" xmlns:serif="http://www.serif.com/" style="fill-rule:evenodd;clip-rule:evenodd;stroke-linejoin:round;stroke-miterlimit:2;">
    <g id="ChatGPT-Image-20-de-fev.-de-2026--00_26_34.png" serif:id="ChatGPT Image 20 de fev. de 2026, 00_26_34.png" transform="matrix(2.692744,0,0,2.692744,770.574803,698.978178)">
        <g>
            <g transform="matrix(0.371368,0,0,0.371368,-286.167112,-259.57839)">
                <path d="M1275.999,3221.937C1278.952,3259.91 1282.214,3261.137 1310.455,3321.822C1470.37,3665.446 2058.816,3772.59 2420.743,3364.063C2596.961,3165.156 2199.158,3856.452 1566.754,3598.741C1324.454,3500.001 1259.467,3282.424 1246.351,3246.671C1238.782,3226.038 1239.899,3229.411 1239.899,3229.411C1239.899,3229.411 1254.147,3226.787 1259.419,3225.615C1276.683,3221.779 1267.339,3224.302 1275.999,3221.937Z" style="fill:white;"/>
            </g>
            <g transform="matrix(0.371368,0,0,0.371368,-286.167112,-259.57839)">
                <path d="M2050.645,2406.041C2021.154,2467.986 1823.452,3115.53 1327.198,3200.862C1313.662,3203.19 1318.824,3203.902 1295.918,3206.54C1270.303,3209.489 1307.106,3204.687 1225.349,3215.178C1180.865,3220.022 1178.407,3222.239 1118.26,3221.424C797.502,3217.08 295.776,2987.971 508.008,2425.705C529.494,2368.782 473.058,2408.832 321.156,2341.503C-131.162,2141.019 -59.011,1523.534 547.321,1302.261C855.235,1209.869 969.364,1234.718 1267.683,1258.009C1282.497,1259.166 1310.276,1263.372 1346.301,1269.211C1444.871,1285.187 1605.177,1313.387 1730.582,1324.794C2037.657,1352.725 2149.735,1315.201 2188.858,1306.949L2192.742,1311.064L2195.515,1320.263C2182.844,1338.285 2172.776,1357.289 2171.007,1360.627C2083.043,1526.659 2031.687,1730.937 2047.66,1598.397C2050.037,1578.674 2064.865,1455.639 1904.306,1395.637C1408.874,1210.491 1209.459,1744.085 1281.539,1907.585C1287.381,1920.837 1477.298,1894.582 1541.069,1918.143C1728.426,1987.366 1536.07,2098.517 1327.578,2015.991C1254.014,1986.872 1258.403,1955.315 1182.856,1976.176C1171.078,1980.629 1096.238,2002.531 980.211,2078.541C954.301,2095.515 783.462,2207.435 709.016,2354.883C697.86,2376.978 927.456,2357.384 1102.79,2199.965C1178.47,2132.018 1102.222,2221.988 1100.904,2223.321C953.612,2372.331 693.754,2385.764 680.775,2410.256C519.843,2713.943 630.334,3221.011 1222.533,3189.589C1221.031,3190.05 1224.914,3189.462 1222.533,3189.589C1231.906,3188.516 1215.015,3190.712 1251.607,3185.902C1256.805,3185.219 1263.889,3183.846 1271.077,3182.084C1313.062,3171.796 1469.1,3131.125 1540.619,3085.727C1731.049,2964.848 1812.185,2820.268 1854.847,2753.333C1935.635,2628.039 2016.641,2414.671 2027.67,2384.817C2028.11,2383.629 2038.984,2355.949 2042.341,2350.071C2049.702,2337.183 2049.117,2336.982 2055.088,2320.705C2064.51,2295.02 2162.55,2027.772 2132.71,1987.65C2078.109,1914.232 1923.929,1931.679 1980.086,1908.262C1980.58,1908.056 2332.998,1901.295 2343.093,1911.974C2349.457,1918.707 2389.137,2150.768 2402.869,2195.802C2413.837,2231.772 2497.691,2676.932 2505.585,2718.837C2540.064,2901.882 2541.162,2918.542 2551.2,2906.77C2568.855,2886.064 2555.514,2878.891 2706.024,2603.92C2795.039,2441.297 3110.308,1908.702 3164.348,1907.269C3188.994,1906.615 3467.595,1899.226 3472.507,1903.2C3516.455,1938.75 3305.867,1900.189 3274.012,2026.646C3271.874,2035.135 3152.084,3055.98 3186.99,3142.7C3215.094,3212.519 3373.346,3203.964 3303.409,3233.888C3292.961,3238.359 3009.153,3219.225 2845.62,3242.717C2842.779,3243.125 2828.256,3226.97 2870.823,3217.168C3052.706,3175.286 2982.664,2822.52 3047.512,2499.181C3052.78,2472.91 3084.924,2110.086 3087.923,2076.228C3088.523,2069.458 3091.209,2063.03 3092.477,2056.353C3101.131,2010.765 3071.921,2059.602 2982.273,2197.016C2892.977,2333.889 2521.766,2984.438 2450.095,3220.584C2434.658,3271.447 2420.795,3143.331 2402.428,3092.043C2397.48,3078.226 2351.383,2858.576 2347.115,2838.238C2337.551,2792.668 2262.664,2435.83 2219.617,2270.339C2218.06,2264.353 2169.237,1983.284 2155.459,2037.527C2098.123,2263.256 2100.614,2262.893 2077.99,2329.962C2074.024,2341.719 2074.335,2339.738 2068.11,2358.595C2056.672,2386.803 2051.964,2402.452 2051.964,2402.452C2051.964,2402.452 2050.677,2405.879 2050.645,2406.041ZM1471.826,2019.312C1481.067,2019.12 1621.465,2016.202 1573.633,1964.686C1532.813,1920.723 1288.245,1930.841 1312.428,1956.903C1362.22,2010.562 1458.175,2018.222 1471.826,2019.312ZM1149.159,1949.391C1175.712,1941.682 1208.869,1941.039 1189.082,1916.284C1078.286,1777.671 1175.612,1541.298 1402.854,1415.963C1544.245,1337.979 1630.817,1335.516 1566.385,1329.226C1407.61,1313.725 953.292,1189.615 570.494,1323.794C521.148,1341.377 196.471,1457.066 89.965,1768.632C-72.789,2244.74 512.294,2411.504 543.808,2358.963C676.425,2137.861 873.473,2036.431 1149.159,1949.391Z" style="fill:white;"/>
            </g>
            <g transform="matrix(0.371368,0,0,0.371368,-286.167112,-259.57839)">
                <path d="M2063.117,2402.4C2063.117,2402.4 2067.074,2394.863 2072.516,2383.979C2073.934,2381.144 2078.942,2373.963 2081.204,2367.388C2102.097,2388.287 2113.337,2394.112 2146.554,2446.305C2193.611,2520.245 2193.005,2602.371 2182.259,2683.56C2167.467,2795.31 2054.176,2937.71 2038.794,2957.044C2021.944,2973.968 2004.995,2989.931 1988.003,3004.983C1672.099,3284.812 1341.179,3249.81 1346.361,3226.123C1349.973,3209.614 1478.854,3241.34 1620.926,3186.056C1656.168,3172.343 1859.829,3093.093 1996.062,2898.453C2260.924,2532.297 2078.09,2414.316 2063.117,2402.4Z" style="fill:white;"/>
            </g>
            <g transform="matrix(0.371368,0,0,0.371368,-286.167112,-259.57839)">
                <path d="M1230.66,3175.619C1229.954,3167.534 1230.488,3173.877 1227.339,3136.796C1209.278,2924.13 1312.901,2637.305 1588.417,2461.944C1684.869,2410.908 1789.07,2330.34 2004.558,2349.019C2019.318,2350.299 1997.503,2348.371 2029.016,2350.514C2026.204,2358.028 2023.687,2364.415 2023.197,2365.883C2018.14,2381.056 2018.738,2380.505 2017.821,2380.183C1861.716,2325.498 1640.437,2462.765 1611.335,2480.148C1371.598,2627.929 1259.471,2925.296 1264.064,3147.046C1264.24,3155.58 1264.292,3152.079 1265.553,3172.594C1265.58,3173.039 1266.103,3171.87 1249.608,3173.523C1233.609,3175.126 1233.531,3175.17 1230.66,3175.619Z" style="fill:white;"/>
            </g>
        </g>
    </g>
</svg>
